<?xml version="1.0" encoding="utf-8"?>
<!-- Generator: Adobe Illustrator 25.2.0, SVG Export Plug-In . SVG Version: 6.00 Build 0)  -->
<svg version="1.1" id="Слой_1" xmlns="http://www.w3.org/2000/svg" xmlns:xlink="http://www.w3.org/1999/xlink" x="0px" y="0px"
	 viewBox="0 0 34.9 35.9" style="enable-background:new 0 0 34.9 35.9;" xml:space="preserve">
<style type="text/css">
	.st0{fill-rule:evenodd;clip-rule:evenodd;fill:#FFFFFF;}
	.st1{fill-rule:evenodd;clip-rule:evenodd;fill:#FFFFFF;filter:url(#Adobe_OpacityMaskFilter);}
	.st2{mask:url(#mask0_1_);}
</style>
<path class="st0" d="M23.6,10.6L7.8,16.4c0,0-0.1,0-0.1,0c-0.1,0-0.1,0.1-0.2,0.1c-0.1,0.1-0.2,0.2-0.2,0.3c0,0,0,0.1,0,0.1
	c0,0.1,0,0.3,0,0.4c0,0,0,0.1,0.1,0.1c0,0,0,0,0,0c0.1,0.1,0.2,0.2,0.4,0.3h0c0,0,0,0,0,0c0,0,0,0,0,0c0,0,0,0,0,0l7.7,1.8l8.7-8.9
	C24.2,10.5,23.9,10.5,23.6,10.6z"/>
<path class="st0" d="M24.3,10.8l-8.7,8.9l1.8,7.8c0,0,0,0,0,0c0,0,0,0,0,0c0,0,0,0,0,0c0,0,0,0,0,0c0,0.2,0.1,0.3,0.3,0.4
	c0,0,0,0,0,0c0,0,0.1,0.1,0.1,0.1c0.1,0,0.2,0.1,0.4,0.1c0,0,0.1,0,0.1,0c0.1,0,0.2-0.1,0.3-0.2c0,0,0.1-0.1,0.1-0.2
	c0,0,0-0.1,0-0.1l5.8-16C24.6,11.3,24.5,11,24.3,10.8z"/>
<path class="st0" d="M27.5,3.4C24.2,1,20.1-0.1,16,0.2C11.9,0.6,8,2.4,5.1,5.4c-6,6.1-6.8,15.6-2,22.7c0.3,0.4,0.7,0.6,1.2,0.6
	c0.3,0,0.6-0.1,0.8-0.3c0.2-0.1,0.3-0.3,0.4-0.4c0.3-0.5,0.3-1.1,0-1.6c-4-5.9-3.3-13.8,1.7-18.9c2.4-2.5,5.7-4,9.1-4.3
	c3.4-0.3,6.8,0.6,9.5,2.6c0.5,0.4,1.1,0.3,1.6,0c0.2-0.1,0.3-0.2,0.4-0.4C28.3,4.8,28.1,3.9,27.5,3.4z"/>
<path class="st0" d="M31.8,7.6c-0.5-0.7-1.4-0.8-2-0.4c-0.2,0.1-0.3,0.3-0.4,0.4c-0.3,0.5-0.3,1.1,0,1.6c2,2.8,2.9,6.3,2.6,9.7
	c-0.3,3.5-1.8,6.8-4.2,9.2c-2.8,2.9-6.5,4.3-10.3,4.3c-2.8,0-5.7-0.8-8.2-2.6c-0.5-0.3-1.1-0.3-1.6,0c-0.2,0.1-0.3,0.2-0.4,0.4
	C6.8,31.1,7,32,7.7,32.5c3,2.1,6.4,3.1,9.8,3.1c4.5,0,9-1.8,12.4-5.2c2.9-3,4.7-6.9,5.1-11.1C35.2,15.1,34.1,11,31.8,7.6z"/>
<defs>
	<filter id="Adobe_OpacityMaskFilter" filterUnits="userSpaceOnUse" x="2.1" y="2.1" width="25.5" height="25.8">
		<feColorMatrix  type="matrix" values="1 0 0 0 0  0 1 0 0 0  0 0 1 0 0  0 0 0 1 0"/>
	</filter>
</defs>
<mask maskUnits="userSpaceOnUse" x="2.1" y="2.1" width="25.5" height="25.8" id="mask0_1_">
	<path class="st1" d="M2.1,15V2.1h25.5V15v12.9H2.1V15z"/>
</mask>
<g class="st2">
	<path class="st0" d="M5.7,26.3c-4-5.9-3.3-13.8,1.7-18.9c2.4-2.5,5.7-4,9.1-4.3c3.4-0.3,6.8,0.6,9.5,2.6c0.5,0.4,1.1,0.3,1.6,0
		c-2.7-2.3-6.2-3.7-10-3.7C9,2.1,2.1,9.1,2.1,17.8c0,3.8,1.3,7.3,3.6,10.1C6,27.4,6,26.8,5.7,26.3z"/>
</g>
</svg>
