<svg width="10" height="14" viewBox="0 0 10 14" fill="none" xmlns="http://www.w3.org/2000/svg">
<path d="M4.99979 0C2.24304 0 5.19605e-08 2.24304 5.19605e-08 5.00007C5.19605e-08 5.71921 0.147192 6.40583 0.437266 7.04102C1.68735 9.7765 4.08412 12.6646 4.78908 13.4845C4.8419 13.5458 4.9189 13.5811 4.99993 13.5811C5.08096 13.5811 5.15796 13.5458 5.21078 13.4845C5.91547 12.6647 8.31223 9.77678 9.56273 7.04102C9.85295 6.40583 10 5.71921 10 5.00007C9.99972 2.24304 7.75668 0 4.99979 0ZM4.99979 7.59712C3.56777 7.59712 2.4026 6.43196 2.4026 4.99993C2.4026 3.56777 3.56777 2.4026 4.99979 2.4026C6.43182 2.4026 7.59698 3.56777 7.59698 4.99993C7.59712 6.43196 6.43196 7.59712 4.99979 7.59712Z" fill="#2A74DB"/>
</svg>
