<svg width="15" height="16" viewBox="0 0 15 16" fill="none" xmlns="http://www.w3.org/2000/svg">
<path fill-rule="evenodd" clip-rule="evenodd" d="M10.6171 10.4978L14.0684 14.1373C14.3603 14.4453 14.3507 14.9362 14.0472 15.2322C13.9044 15.3716 13.7163 15.4483 13.518 15.4483C13.3085 15.4483 13.113 15.3639 12.9677 15.2108L9.49023 11.5437C8.50282 12.2472 7.34791 12.6179 6.13598 12.6179C2.90773 12.6179 0.28125 9.95477 0.28125 6.6815C0.28125 3.40823 2.90773 0.745117 6.13598 0.745117C9.36422 0.745117 11.9907 3.40823 11.9907 6.6815C11.9907 8.08249 11.5045 9.42824 10.6171 10.4978ZM10.4634 6.68158C10.4634 4.26212 8.52222 2.29382 6.13604 2.29382C3.74986 2.29382 1.80863 4.26212 1.80863 6.68158C1.80863 9.10104 3.74986 11.0693 6.13604 11.0693C8.52222 11.0693 10.4634 9.10104 10.4634 6.68158Z" fill="#BBC3CF"/>
</svg>
