<svg width="18" height="19" viewBox="0 0 18 19" fill="none" xmlns="http://www.w3.org/2000/svg">
<path d="M9.00024 9.59594C11.229 9.59594 13.0361 7.4478 13.0361 4.79795C13.0361 1.12334 11.2291 0 9.00024 0C6.77125 0 4.96442 1.12334 4.96442 4.79795C4.96446 7.4478 6.7713 9.59594 9.00024 9.59594Z" fill="white"/>
<path d="M17.912 16.6586L15.8758 11.9998C15.7827 11.7866 15.6191 11.6098 15.4155 11.5021L12.2555 9.83135C12.1858 9.79458 12.1015 9.80173 12.0388 9.8499C11.1451 10.5365 10.0942 10.8994 9.00004 10.8994C7.90565 10.8994 6.8549 10.5365 5.96116 9.8499C5.89834 9.80173 5.81396 9.79458 5.74428 9.83135L2.58455 11.5021C2.38083 11.6098 2.2174 11.7866 2.12418 11.9998L0.088054 16.6586C-0.0523244 16.9798 -0.0235536 17.3473 0.16504 17.6419C0.353546 17.9364 0.672575 18.1122 1.01848 18.1122H16.9815C17.3274 18.1122 17.6465 17.9363 17.835 17.6418C18.0235 17.3473 18.0524 16.9797 17.912 16.6586Z" fill="white"/>
</svg>
