<?xml version="1.0" encoding="utf-8"?>
<!-- Generator: Adobe Illustrator 25.2.0, SVG Export Plug-In . SVG Version: 6.00 Build 0)  -->
<svg version="1.1" id="Слой_1" xmlns="http://www.w3.org/2000/svg" xmlns:xlink="http://www.w3.org/1999/xlink" x="0px" y="0px"
	 viewBox="0 0 20 21" style="enable-background:new 0 0 20 21;" xml:space="preserve">
<style type="text/css">
	.st0{fill:#FFFFFF;}
</style>
<g id="XMLID_1_">
	<g>
		<rect x="14.2" y="15.7" class="st0" width="2.3" height="2"/>
		<rect x="14.2" y="12.3" class="st0" width="2.3" height="2"/>
		<rect x="14.2" y="9" class="st0" width="2.3" height="2"/>
		<path class="st0" d="M16.4,2.9c0,0.8-0.6,1.4-1.4,1.4c-0.8,0-1.4-0.6-1.4-1.4V1.5c0-0.8,0.6-1.4,1.4-1.4c0.8,0,1.4,0.6,1.4,1.4
			V2.9z"/>
		<rect x="10.8" y="15.7" class="st0" width="2.3" height="2"/>
		<rect x="10.8" y="12.3" class="st0" width="2.3" height="2"/>
		<rect x="10.8" y="9" class="st0" width="2.3" height="2"/>
		<rect x="7.2" y="15.7" class="st0" width="2.3" height="2"/>
		<rect x="7.2" y="12.3" class="st0" width="2.3" height="2"/>
		<rect x="7.2" y="9" class="st0" width="2.3" height="2"/>
		<rect x="3.6" y="9" class="st0" width="2.3" height="2"/>
		<rect x="3.6" y="15.7" class="st0" width="2.3" height="2"/>
		<rect x="3.6" y="12.3" class="st0" width="2.3" height="2"/>
		<path class="st0" d="M6.4,2.9c0,0.8-0.6,1.4-1.4,1.4S3.6,3.7,3.6,2.9V1.5c0-0.8,0.6-1.4,1.4-1.4s1.4,0.6,1.4,1.4V2.9z"/>
		<path class="st0" d="M18.6,7.5H1.4v11.4h17.1V7.5z M5,5.4c1.2,0,2.1-1,2.1-2.1V2.5h5.7v0.7c0,1.2,1,2.1,2.1,2.1
			c1.2,0,2.1-1,2.1-2.1V2.5H20l0,17.9l-1.4,0H1.4H0V2.5l2.9,0v0.7C2.9,4.4,3.8,5.4,5,5.4z"/>
	</g>
	<g>
	</g>
</g>
</svg>
