<?xml version="1.0" encoding="utf-8"?>
<!-- Generator: Adobe Illustrator 25.2.0, SVG Export Plug-In . SVG Version: 6.00 Build 0)  -->
<svg version="1.1" id="Слой_1" xmlns="http://www.w3.org/2000/svg" xmlns:xlink="http://www.w3.org/1999/xlink" x="0px" y="0px"
	 viewBox="0 0 20 17" style="enable-background:new 0 0 20 17;" xml:space="preserve">
<style type="text/css">
	.st0{fill:#FFFFFF;}
</style>
<g id="XMLID_1_">
	<g>
		<path class="st0" d="M20,5.5v9c0,0.5-0.2,0.9-0.5,1.3c-0.4,0.4-0.8,0.5-1.3,0.5H1.8c-0.5,0-0.9-0.2-1.3-0.5C0.2,15.5,0,15,0,14.5
			v-9c0.3,0.4,0.7,0.7,1.1,1c2.7,1.9,4.5,3.2,5.5,3.9c0.4,0.3,0.8,0.6,1,0.7c0.3,0.2,0.6,0.4,1.1,0.5C9.2,11.9,9.6,12,10,12h0h0
			c0.4,0,0.8-0.1,1.2-0.3c0.4-0.2,0.8-0.4,1.1-0.5c0.3-0.2,0.6-0.4,1-0.7c1.3-0.9,3.1-2.2,5.5-3.9C19.3,6.2,19.7,5.9,20,5.5z"/>
		<path class="st0" d="M9.4,10.4c-0.2-0.1-0.4-0.2-0.6-0.3C8.6,10,8.4,9.9,8.2,9.8C8.1,9.7,7.8,9.5,7.6,9.4C7.4,9.2,7.2,9.1,7.1,9
			C6.4,8.5,5.5,7.8,4.2,6.9C2.9,6,2.2,5.5,1.9,5.3C1.5,5,1,4.6,0.6,4C0.2,3.5,0,2.9,0,2.5C0,1.9,0.2,1.4,0.5,1
			c0.3-0.4,0.8-0.6,1.3-0.6h16.4c0.5,0,0.9,0.2,1.3,0.5C19.8,1.3,20,1.7,20,2.2c0,0.6-0.2,1.2-0.5,1.7c-0.4,0.5-0.8,1-1.4,1.4
			c-2.8,2-4.5,3.2-5.2,3.7c-0.1,0.1-0.2,0.2-0.5,0.4c-0.2,0.2-0.4,0.3-0.6,0.4c-0.2,0.1-0.4,0.2-0.6,0.4c-0.2,0.1-0.4,0.2-0.6,0.3
			c-0.2,0.1-0.4,0.1-0.6,0.1h0h0C9.8,10.6,9.6,10.5,9.4,10.4z"/>
	</g>
	<g>
	</g>
</g>
</svg>
