<svg width="18" height="18" viewBox="0 0 18 18" fill="none" xmlns="http://www.w3.org/2000/svg">
<path d="M3.85714 11.5714C3.85714 10.2857 3.85714 5.14286 3.85714 5.14286C3.85714 5.14286 3.86036 4.85357 4.01079 4.5C2.67429 4.5 1.28571 4.5 1.28571 4.5C1.28571 4.5 0 4.5 0 5.78571V10.2857C0 11.5714 1.28571 11.5714 1.28571 11.5714V18H5.14286V12.8571C5.14286 12.8571 3.85714 12.8571 3.85714 11.5714Z" fill="white"/>
<path d="M3.85692 3.85714C4.1912 3.85714 4.50042 3.76457 4.77427 3.61543C4.8122 3.59229 4.85463 3.57171 4.89513 3.54921C5.42934 3.20657 5.78549 2.61064 5.78549 1.92857C5.78549 0.863357 4.92213 0 3.85692 0C2.7917 0 1.92834 0.863357 1.92834 1.92857C1.92834 2.99379 2.7917 3.85714 3.85692 3.85714Z" fill="white"/>
<path d="M16.7147 4.5H13.9903C14.14 4.85357 14.1433 5.14286 14.1433 5.14286C14.1433 5.14286 14.1433 10.2857 14.1433 11.5714C14.1433 12.8571 12.8575 12.8571 12.8575 12.8571V18H16.7147V11.5714C16.7147 11.5714 18.0004 11.5714 18.0004 10.2857C18.0004 9 18.0004 5.78571 18.0004 5.78571C18.0004 5.78571 18.0004 4.5 16.7147 4.5Z" fill="white"/>
<path d="M13.1013 3.54793C13.1431 3.57043 13.1875 3.59164 13.226 3.61543C13.4999 3.76457 13.8085 3.85714 14.1427 3.85714C15.208 3.85714 16.0713 2.99379 16.0713 1.92857C16.0713 0.863357 15.208 0 14.1427 0C13.0775 0 12.2142 0.863357 12.2142 1.92857C12.2142 2.60936 12.569 3.20464 13.1013 3.54793Z" fill="white"/>
<path d="M9.00023 3.85714C10.0653 3.85714 10.9288 2.99369 10.9288 1.92857C10.9288 0.863451 10.0653 0 9.00023 0C7.93511 0 7.07166 0.863451 7.07166 1.92857C7.07166 2.99369 7.93511 3.85714 9.00023 3.85714Z" fill="white"/>
<path d="M12.8567 5.78571C12.8567 5.78571 12.8567 4.5 11.571 4.5C11.2496 4.5 6.42817 4.5 6.42817 4.5C6.42817 4.5 5.14246 4.5 5.14246 5.78571V10.2857C5.14246 11.5714 6.42817 11.5714 6.42817 11.5714V18H11.571V11.5714C11.571 11.5714 12.8567 11.5714 12.8567 10.2857C12.8567 9 12.8567 5.78571 12.8567 5.78571Z" fill="white"/>
</svg>
